<svg xmlns="http://www.w3.org/2000/svg" viewBox="0 0 100 100">
  <circle cx="50" cy="50" r="45" fill="#1a2633"/>
  <circle cx="50" cy="50" r="45" fill="none" stroke="#00d4aa" stroke-width="3"/>
  <ellipse cx="50" cy="50" rx="45" ry="15" fill="none" stroke="#00d4aa" stroke-width="1.5" opacity="0.6"/>
  <ellipse cx="50" cy="30" rx="35" ry="10" fill="none" stroke="#00d4aa" stroke-width="1.5" opacity="0.6"/>
  <ellipse cx="50" cy="70" rx="35" ry="10" fill="none" stroke="#00d4aa" stroke-width="1.5" opacity="0.6"/>
  <ellipse cx="50" cy="50" rx="20" ry="45" fill="none" stroke="#00d4aa" stroke-width="1.5" opacity="0.6"/>
  <ellipse cx="50" cy="50" rx="38" ry="45" fill="none" stroke="#00d4aa" stroke-width="1.5" opacity="0.6"/>
  <path d="M52 15 Q58 20 56 28 Q62 32 58 40 Q65 45 60 55 Q58 65 52 75 Q48 80 45 85" fill="none" stroke="#00d4aa" stroke-width="2.5" stroke-linecap="round"/>
  <path d="M30 25 Q25 35 28 45 Q22 55 26 65 Q24 72 28 78" fill="none" stroke="#00d4aa" stroke-width="2.5" stroke-linecap="round"/>
  <path d="M65 22 Q75 28 78 38 Q82 42 76 50 Q80 55 75 60" fill="none" stroke="#00d4aa" stroke-width="2.5" stroke-linecap="round"/>
  <circle cx="56" cy="28" r="3" fill="#00d4aa"/>
  <circle cx="58" cy="40" r="3" fill="#00d4aa"/>
  <circle cx="28" cy="45" r="3" fill="#00d4aa"/>
  <circle cx="78" cy="38" r="3" fill="#00d4aa"/>
</svg>
